Coordinates
version=1
nRows=21
nColumns=22
inDegrees=yes

Units are S.I. units (second, meters, Newtons, ...)
If the header above contains a line with 'inDegrees', this indicates whether rotational values are in degrees (yes) or radians (no).

endheader
time	pelvis_tilt	pelvis_list	pelvis_rotation	pelvis_tx	pelvis_ty	pelvis_tz	hip_flexion_r	hip_adduction_r	hip_rotation_r	knee_angle_r	ankle_angle_r	subtalar_angle_r	hip_flexion_l	hip_adduction_l	hip_rotation_l	knee_angle_l	ankle_angle_l	subtalar_angle_l	lumbar_extension	lumbar_bending	lumbar_rotation
      1.83000000	     -1.92202162	      0.16740263	    133.87105668	     -0.14572686	      0.91838342	      0.71421232	      1.50158356	     10.97311008	      2.80112131	    -18.04666202	      9.28708716	    -11.23491642	     22.11998169	    -11.33384850	     -5.91725542	    -48.90976003	      3.77077852	     -0.42933420	     -8.96677799	     -3.36092830	      4.72023010
      1.84000000	     -1.82947637	      0.13311925	    132.81141670	     -0.15001244	      0.91801404	      0.70799117	      0.83305070	     11.00170525	      3.83448664	    -17.78022804	      9.47744901	    -11.15903649	     22.34845106	    -11.41845334	     -6.28456688	    -45.82939166	      3.88977554	     -0.72868479	     -8.85044074	     -3.33564295	      5.13823999
      1.85000000	     -1.71338933	      0.07583622	    131.77861154	     -0.15439332	      0.91745525	      0.70183121	      0.23784874	     11.00688236	      4.82457579	    -17.58989864	      9.71076303	    -11.07337374	     22.53639838	    -11.43366510	     -6.62626666	    -42.59188869	      3.91546918	     -0.82219511	     -8.70291550	     -3.28057936	      5.51191346
      1.86000000	     -1.58066632	     -0.00291512	    130.76493051	     -0.15884701	      0.91670776	      0.69572140	     -0.28574231	     10.99083416	      5.78547035	    -17.48394762	      9.99358818	    -10.97829985	     22.68262025	    -11.37916452	     -6.93065067	    -39.22044504	      3.86781625	     -0.69849694	     -8.53285661	     -3.20268770	      5.85747693
      1.87000000	     -1.45588586	     -0.06145452	    129.79447180	     -0.16338961	      0.91583814	      0.68965183	     -0.80323220	     10.96802110	      6.70744146	    -17.43225568	     10.31075015	    -10.86505747	     22.74689630	    -11.25736437	     -7.14684393	    -35.73864880	      3.78937169	     -0.26953287	     -8.39988574	     -3.09498715	      6.13374863
      1.88000000	     -1.24217630	     -0.24466940	    128.82497687	     -0.16794312	      0.91457019	      0.68366264	     -1.06846230	     10.92399661	      7.57176659	    -17.54391123	     10.69908014	    -10.77781844	     22.94147703	    -11.07633889	     -7.32371964	    -32.21679337	      3.67160376	      0.18158025	     -8.10051669	     -2.98219525	      6.44095291
      1.89000000	     -1.07147486	     -0.35563214	    127.90592717	     -0.17263390	      0.91328667	      0.67768738	     -1.42532032	     10.88236888	      8.40712846	    -17.65446970	     11.09764071	    -10.65549414	     22.99051384	    -10.84258081	     -7.36588312	    -28.63141914	      3.58853201	      1.13501616	     -7.90829628	     -2.82583245	      6.66952681
      1.90000000	     -0.87343444	     -0.53098104	    126.99437205	     -0.17736338	      0.91175578	      0.67174366	     -1.64828693	     10.81591273	      9.18628401	    -17.88427975	     11.56469033	    -10.53633041	     23.07627996	    -10.55929615	     -7.35915709	    -25.05377425	      3.50825003	      2.16721546	     -7.64674357	     -2.67393422	      6.90222054
      1.91000000	     -0.68766406	     -0.71022656	    126.09738309	     -0.18214725	      0.91009367	      0.66579648	     -1.84203215	     10.73274049	      9.91600247	    -18.18324353	     12.07431030	    -10.40384412	     23.12366628	    -10.24365312	     -7.30480086	    -21.51775457	      3.43642973	      3.41164332	     -7.39939764	     -2.52146405	      7.11473330
      1.92000000	     -0.52106415	     -0.87932816	    125.20853393	     -0.18700704	      0.90833509	      0.65981809	     -2.03715666	     10.63102826	     10.59226540	    -18.52768352	     12.62418882	    -10.25663159	     23.12565485	     -9.91304564	     -7.24224115	    -18.07964846	      3.35671344	      4.87352078	     -7.17831561	     -2.36205947	      7.31760845
      1.93000000	     -0.37525352	     -1.02250345	    124.32535134	     -0.19193330	      0.90650400	      0.65378051	     -2.25984862	     10.51829063	     11.21752982	    -18.89661562	     13.20515338	    -10.09752465	     23.08826145	     -9.58813986	     -7.20812050	    -14.81590655	      3.24761421	      6.53734917	     -6.99677581	     -2.19208175	      7.51134348
      1.94000000	     -0.25138138	     -1.13582508	    123.44153982	     -0.19692526	      0.90461560	      0.64765512	     -2.51481960	     10.39205694	     11.76459432	    -19.29115661	     13.81053064	     -9.93653314	     23.02575110	     -9.27964966	     -7.24543486	    -11.80520309	      3.10822423	      8.31123650	     -6.85615519	     -2.01498338	      7.72273297
      1.95000000	     -0.14249001	     -1.19406389	    122.57341110	     -0.20195461	      0.90271144	      0.64144582	     -2.83612175	     10.27925987	     12.28903424	    -19.67966693	     14.40751573	     -9.77656325	     22.95870199	     -9.00966168	     -7.32415511	     -9.15327774	      2.92988515	     10.19286572	     -6.78166927	     -1.81089088	      7.88724846
      1.96000000	     -0.02846739	     -1.19183153	    121.73087156	     -0.20703990	      0.90081381	      0.63512554	     -3.23819217	     10.19297659	     12.76258337	    -20.01924363	     14.98816748	     -9.63124298	     22.92229503	     -8.80167188	     -7.40602041	     -6.95842482	      2.75319812	     12.02308542	     -6.75990449	     -1.56139879	      8.03779041
      1.97000000	      0.06936597	     -1.13751513	    120.90274071	     -0.21212566	      0.89896432	      0.62869808	     -3.70364242	     10.11515384	     13.19552571	    -20.35651135	     15.52776057	     -9.51140291	     22.92504954	     -8.64361019	     -7.48460778	     -5.29141789	      2.59677822	     13.67356925	     -6.80541465	     -1.30299067	      8.16414915
      1.98000000	      0.16055120	     -1.02450891	    120.11030156	     -0.21722032	      0.89720374	      0.62214993	     -4.24807061	     10.05753902	     13.58209532	    -20.65820369	     16.01555880	     -9.42120885	     22.98590129	     -8.54624099	     -7.48805448	     -4.21580344	      2.50525601	     15.01534466	     -6.91679590	     -1.02697011	      8.25719928
      1.99000000	      0.22128095	     -0.88685425	    119.32354316	     -0.22227649	      0.89555383	      0.61546429	     -4.83981302	      9.98311199	     13.97448839	    -20.95802520	     16.44430326	     -9.35499706	     23.11831300	     -8.48400502	     -7.43731019	     -3.75577891	      2.45854687	     15.90421523	     -7.07774675	     -0.78795932	      8.33679970
      2.00000000	      0.26775446	     -0.70623538	    118.58429931	     -0.22739985	      0.89404328	      0.60860953	     -5.50616510	      9.90924649	     14.31132962	    -21.21726745	     16.80943496	     -9.29858044	     23.30622904	     -8.45881440	     -7.22681646	     -3.88074454	      2.53026412	     16.38475546	     -7.28203670	     -0.55510176	      8.37162094
      2.01000000	      0.29594932	     -0.53645653	    117.88497182	     -0.23255450	      0.89262753	      0.60164414	     -6.14836921	      9.81222718	     14.57334410	    -21.52970254	     17.15334834	     -9.25738824	     23.58249635	     -8.43223655	     -6.85706657	     -4.52782564	      2.51229129	     16.43254028	     -7.48738034	     -0.36635533	      8.34944311
      2.02000000	      0.26367023	     -0.32213362	    117.15361096	     -0.23773643	      0.89144671	      0.59436756	     -6.90884297	      9.67026793	     14.95334997	    -21.79120924	     17.34140610	     -9.17275367	     23.79956602	     -8.40893056	     -6.39333004	     -5.58237418	      2.64550891	     16.29812668	     -7.74912197	     -0.24246288	      8.36369134
      2.03000000	      0.20316356	     -0.12770697	    116.44231813	     -0.24299890	      0.89039582	      0.58689637	     -7.65699382	      9.48480976	     15.32035887	    -22.08151096	     17.47921140	     -9.05188766	     24.01996476	     -8.34596617	     -5.76002443	     -6.92208721	      2.67309434	     15.84702210	     -7.98980440	     -0.17615922	      8.32810999
